<?xml version="1.0" encoding="UTF-8"?> <!-- Generator: Adobe Illustrator 26.4.1, SVG Export Plug-In . SVG Version: 6.00 Build 0) --> <svg xmlns="http://www.w3.org/2000/svg" xmlns:xlink="http://www.w3.org/1999/xlink" id="Layer_1" x="0px" y="0px" viewBox="0 0 170.6 58.2" style="enable-background:new 0 0 170.6 58.2;" xml:space="preserve"> <style type="text/css"> .st0{clip-path:url(#SVGID_00000084501937225664469570000002610327429903383707_);} .st1{fill:#FFECD5;} </style> <g> <defs> <rect id="SVGID_1_" x="1.1" y="1.8" width="168.4" height="54.7"></rect> </defs> <clipPath id="SVGID_00000182530007456090707300000013385968376747078803_"> <use xlink:href="#SVGID_1_" style="overflow:visible;"></use> </clipPath> <g id="Group_1371" style="clip-path:url(#SVGID_00000182530007456090707300000013385968376747078803_);"> <path id="Path_2514" class="st1" d="M19.6,32.9c0-0.1-0.1-0.1-0.1-0.2c-1.1-2.5-4-3.7-6.5-2.7c-2.5,1-3.7,3.9-2.7,6.4 c0.1,0.1,0.1,0.3,0.2,0.4c1,2.5,3.9,3.7,6.5,2.7c2.5-1,3.7-3.9,2.7-6.5C19.6,33,19.6,33,19.6,32.9 M158.9,16.1H156v15.6h2.9V16.1z M16.3,43.5l-0.2-0.2c-1.8-1.6-4.5-1.4-6,0.4s-1.4,4.5,0.4,6l0,0c0.1,0.1,0.2,0.2,0.3,0.2c1.8,1.6,4.5,1.4,6-0.3 C18.4,47.9,18.2,45.2,16.3,43.5C16.4,43.6,16.4,43.6,16.3,43.5 M152.9,16.1H150v15.6h2.9V16.1z M23.1,49.7l-0.2-0.1 c-1.4-0.4-2.9,0.4-3.3,1.8c-0.4,1.4,0.4,2.8,1.8,3.3l0.3,0.1c1.4,0.4,2.9-0.4,3.3-1.8C25.3,51.6,24.5,50.1,23.1,49.7 M9,37.2 L8.9,37c-0.6-1.4-2.1-2-3.5-1.5c-1.4,0.6-2,2.1-1.5,3.5c0,0.1,0.1,0.2,0.1,0.3c0.6,1.4,2.1,2,3.5,1.4C9,40.2,9.6,38.6,9,37.2 M5.4,32.2c2.3,0,4.2-1.8,4.3-4.1c0-0.1,0-0.2,0-0.3c0.1-2.4-1.7-4.3-4.1-4.4c-2.3-0.1-4.3,1.7-4.4,4c0,0.1,0,0.2,0,0.4 c-0.1,2.4,1.7,4.3,4.1,4.4C5.3,32.2,5.3,32.2,5.4,32.2 M26.3,38.8l-0.2-0.1c-2.6-0.8-5.4,0.7-6.1,3.3c-0.8,2.6,0.7,5.4,3.4,6.2 c0.1,0,0.3,0.1,0.4,0.1c2.6,0.7,5.4-0.9,6-3.5C30.4,42.2,28.9,39.5,26.3,38.8 M51.9,36.2c-2.1-1.1-4.7-0.3-5.8,1.8L46,38.2 c-1.2,2.1-0.4,4.7,1.7,5.8c2.1,1.2,4.7,0.4,5.8-1.7c0,0,0,0,0-0.1c0.1-0.1,0.1-0.2,0.2-0.3C54.8,39.9,54,37.3,51.9,36.2 M53.4,27.5c-1.5-0.1-2.7,1.1-2.8,2.5l0,0.3c-0.1,1.5,1,2.7,2.5,2.8c0,0,0,0,0,0c0.1,0,0.1,0,0.2,0c1.4,0,2.6-1.1,2.7-2.5l0-0.3 C56,28.9,54.9,27.6,53.4,27.5C53.4,27.5,53.4,27.5,53.4,27.5 M77.7,16.1h-3l0,10.6c0,1.6-0.8,2.4-2.1,2.4 c-0.9-0.1-1.7-0.5-2.3-1.2l-1.8,2.2c1.2,1.1,2.7,1.8,4.3,1.8c2.6,0.1,4.7-1.9,4.9-4.4c0-0.2,0-0.4,0-0.5L77.7,16.1z M41.6,46.5 l-0.2,0.1c-1.2,0.8-1.5,2.5-0.7,3.7c0.8,1.2,2.5,1.5,3.7,0.7c0.1-0.1,0.2-0.1,0.3-0.2c1.2-0.9,1.5-2.5,0.6-3.7 C44.4,45.9,42.8,45.7,41.6,46.5 M32.6,47.9l-0.2,0c-2.3,0.4-3.9,2.5-3.6,4.9c0.4,2.3,2.5,3.9,4.9,3.6c0,0,0.1,0,0.1,0 c0.1,0,0.2,0,0.4-0.1c2.3-0.5,3.8-2.7,3.4-5C37,49,34.8,47.5,32.6,47.9 M40.9,45.2L40.9,45.2c2.2-1.7,2.7-4.8,1-7 c-1.6-2.1-4.7-2.6-6.8-1l-0.2,0.1c-2.3,1.6-2.8,4.6-1.3,6.9c1.6,2.3,4.6,2.8,6.9,1.3c0,0,0,0,0.1,0C40.7,45.3,40.8,45.3,40.9,45.2 M6.4,19.5c1.3,0.7,2.9,0.2,3.6-1c0,0,0,0,0,0l0.1-0.2c0.7-1.3,0.3-2.9-1-3.6c-1.3-0.7-2.9-0.3-3.6,1c-0.1,0.1-0.1,0.2-0.2,0.3 C4.6,17.2,5.1,18.8,6.4,19.5C6.4,19.5,6.4,19.5,6.4,19.5 M38.1,24.9c0-0.1-0.1-0.2-0.1-0.3l0,0l0,0c-0.5-1.2-1.9-1.7-3.1-1.2 c-1.2,0.5-1.7,1.9-1.2,3.1c0,0,0,0,0,0l0,0c0,0,0,0.1,0.1,0.1c0.5,1.2,1.8,1.8,3.1,1.3C38,27.5,38.6,26.1,38.1,24.9 M34.3,34.4 c1.1,0.6,2.6,0.3,3.2-0.9c0,0,0,0,0,0c0.1-0.1,0.1-0.2,0.2-0.3c0.6-1.1,0.2-2.6-1-3.2s-2.6-0.2-3.2,1c0,0,0,0,0,0 c0,0-0.1,0.1-0.1,0.1C32.8,32.3,33.2,33.7,34.3,34.4C34.3,34.4,34.3,34.4,34.3,34.4 M44.4,24.5c-2.7-0.1-5,2-5.2,4.7 c0,0.1,0,0.2,0,0.2c-0.2,2.7,1.9,5.1,4.6,5.2c0,0,0,0,0,0c0.1,0,0.2,0,0.3,0c2.6,0,4.8-2,4.9-4.7c0-0.1,0-0.3,0-0.4 C49.3,27,47.2,24.7,44.4,24.5 M29.8,33.7l-0.2,0c-1.3,0.2-2.2,1.4-2,2.7c0.2,1.2,1.2,2,2.3,2c0.1,0,0.2,0,0.4,0 c0.1,0,0.2,0,0.3-0.1c1.3-0.2,2.1-1.5,1.9-2.7C32.4,34.3,31.2,33.5,29.8,33.7C29.9,33.7,29.9,33.7,29.8,33.7 M34.1,10.2l0.2,0.1 c2.3,0.6,4.6-0.7,5.3-2.9C40.2,5,38.9,2.7,36.6,2l-0.4-0.1C34,1.3,31.7,2.7,31.1,5C30.5,7.3,31.8,9.6,34.1,10.2 M33.3,22 c0.4-1.2-0.3-2.6-1.6-2.9c-0.1,0-0.2-0.1-0.3-0.1c-1.3-0.3-2.6,0.4-2.9,1.7s0.4,2.6,1.7,2.9c0.1,0,0.1,0,0.2,0 C31.6,23.9,33,23.2,33.3,22C33.3,22,33.3,22,33.3,22 M43.4,12.7l0.2,0.2c1.1,1,2.8,0.9,3.8-0.2s0.9-2.8-0.2-3.8l0,0 c-0.1-0.1-0.2-0.1-0.2-0.2l0,0c-1.1-0.9-2.8-0.8-3.8,0.4C42.3,10.1,42.4,11.7,43.4,12.7 M35.3,14.1c-1.8,2.1-1.6,5.2,0.5,7 c0.1,0,0.1,0.1,0.2,0.1c2,1.9,5.1,1.8,7-0.3c1.9-2,1.8-5.1-0.3-7c0,0-0.1-0.1-0.1-0.1c-0.1-0.1-0.2-0.2-0.3-0.3 C40.2,11.8,37,12,35.3,14.1 M46.8,21.2L46.8,21.2c0,0.1,0.1,0.1,0.1,0.2c0.9,2.2,3.4,3.2,5.6,2.3c2.1-0.9,3.2-3.4,2.3-5.5 c0-0.1-0.1-0.2-0.2-0.4l0,0l0-0.1c-1-2.2-3.5-3.1-5.7-2.1C46.8,16.5,45.8,19,46.8,21.2 M25.5,32.5c0,0-0.1-0.1-0.1-0.1 c-1-0.9-2.5-0.8-3.3,0.2c-0.8,1-0.8,2.4,0.1,3.3c0.1,0.1,0.2,0.1,0.2,0.2c1,0.8,2.5,0.7,3.3-0.3C26.6,34.9,26.4,33.4,25.5,32.5 M19,27.9c0,0.1,0,0.2,0,0.3c-0.1,1.3,1,2.4,2.3,2.4c0,0,0,0,0,0h0.1c1.3,0,2.3-1,2.4-2.3c0-0.1,0-0.1,0-0.2 c0.1-1.3-0.8-2.5-2.1-2.6s-2.5,0.8-2.6,2.1C19,27.7,19,27.8,19,27.9 M15,14.1c0.9,0,1.8-0.3,2.5-0.8l0.2-0.2c1.9-1.4,2.4-4,1.1-6 s-4-2.4-6-1.1c0,0,0,0-0.1,0l-0.3,0.2c-1.9,1.4-2.3,4.1-0.9,6C12.4,13.5,13.6,14.1,15,14.1 M26.2,18.9c0.3,0,0.6,0,0.9-0.1l0.2,0 c2.7-0.5,4.5-3,4-5.7c-0.5-2.6-3-4.4-5.6-4c-0.1,0-0.3,0-0.4,0.1c-2.7,0.5-4.5,3.1-4,5.8C21.8,17.1,23.8,18.8,26.2,18.9 M24.9,7.6 c0.2,0,0.3,0,0.5,0l0.3,0C27,7.3,28,5.9,27.8,4.5C27.5,3,26.2,2,24.7,2.2l-0.3,0.1C23,2.6,22,3.9,22.2,5.4 C22.5,6.7,23.6,7.6,24.9,7.6 M13.2,26.1c2.4,1.3,5.4,0.4,6.7-2c0,0,0,0,0,0c0-0.1,0.1-0.1,0.1-0.2c1.3-2.4,0.4-5.4-2-6.7 c-2.4-1.3-5.4-0.5-6.7,1.9c-0.1,0.1-0.1,0.2-0.2,0.4C9.9,21.8,10.8,24.8,13.2,26.1C13.2,26.1,13.2,26.1,13.2,26.1 M26.5,21 c-0.7-1.1-2.2-1.4-3.3-0.6c0,0,0,0,0,0c-0.1,0.1-0.2,0.1-0.3,0.2c-1,0.8-1.3,2.3-0.5,3.3s2.3,1.3,3.3,0.5c0,0,0.1-0.1,0.1-0.1 C27,23.5,27.3,22,26.5,21C26.5,21,26.5,21,26.5,21 M150.5,39.6c-0.3-0.5-0.8-0.8-1.4-0.7c-1,0-1.9,0.8-1.9,1.9 c0,1,0.8,1.9,1.9,1.9c0.6,0,1.1-0.3,1.4-0.7l0,0.7h0.5v-3.6h-0.5L150.5,39.6z M149.2,42.1c-0.8,0-1.4-0.6-1.4-1.3 c0-0.8,0.6-1.4,1.3-1.4c0.8,0,1.4,0.6,1.4,1.3c0,0,0,0,0,0C150.6,41.4,150,42,149.2,42.1C149.2,42.1,149.2,42.1,149.2,42.1 M134,38c0-0.2,0.1-0.2,0.2-0.2h0.7v-0.5h-0.8c-0.3,0-0.7,0.2-0.7,0.6c0,0,0,0.1,0,0.1v0.9h-0.7v0.5h0.7v3.1h0.5v-3.1h1v-0.5h-1 L134,38z M140.9,31.7V16.1h-3v6.4h-7v-6.4h-3v15.6h3v-6.4h7v6.4L140.9,31.7z M138,42.5h3.1v-0.5h-2.5v-1.8h2.4v-0.5h-2.4v-1.8h2.5 v-0.5H138V42.5z M128.5,38.8c-1,0-1.9,0.8-1.9,1.8c0,0,0,0,0,0.1c0,1.1,0.9,1.9,2,1.9c1,0,1.9-0.8,1.9-1.9 C130.5,39.7,129.6,38.8,128.5,38.8C128.6,38.8,128.6,38.8,128.5,38.8 M128.6,42.1c-0.8,0-1.4-0.6-1.4-1.3c0-0.8,0.6-1.4,1.3-1.4 c0,0,0,0,0.1,0c0.8,0,1.4,0.7,1.3,1.4C129.9,41.5,129.3,42,128.6,42.1 M123.6,40.1h1.8c-0.1,1.1-0.9,1.9-2,1.9 c-1.2,0-2.2-1-2.2-2.1c0-1.2,0.9-2.1,2.1-2.1c0,0,0,0,0,0c0.6,0,1.3,0.3,1.7,0.7l0.4-0.4c-0.6-0.6-1.3-0.8-2.1-0.8 c-1.5,0-2.7,1.1-2.7,2.6c0,0,0,0,0,0.1c0,1.5,1.2,2.7,2.7,2.7c0,0,0,0,0,0c1.4,0,2.6-1.1,2.6-2.5c0,0,0-0.1,0-0.1v-0.4h-2.4 L123.6,40.1z M131.4,42.5h0.5v-5.2h-0.5V42.5z M143.4,40.5l-0.4-0.1c-0.4-0.1-0.6-0.3-0.6-0.6c0-0.3,0.3-0.5,0.6-0.5c0,0,0,0,0,0 c0.4,0,0.7,0.2,0.8,0.6l0.5-0.1c-0.1-0.6-0.6-1-1.2-1c-0.6-0.1-1.1,0.3-1.2,0.9c0,0,0,0.1,0,0.1c0,0.5,0.4,0.8,0.8,1l0.5,0.2 c0.5,0.1,0.6,0.3,0.6,0.6s-0.3,0.5-0.7,0.5c-0.4,0-0.8-0.3-0.9-0.7l-0.5,0.2c0.1,0.6,0.7,1.1,1.4,1c0.6,0.1,1.2-0.4,1.3-1 c0,0,0,0,0-0.1C144.3,41,143.9,40.7,143.4,40.5 M156.2,38.8c-1,0-1.9,0.8-1.9,1.8c0,0,0,0,0,0.1c0,1,0.7,1.8,1.7,1.9 c0.1,0,0.1,0,0.2,0c0.6,0,1.2-0.2,1.6-0.6l-0.3-0.4c-0.3,0.3-0.8,0.5-1.2,0.5c-0.7,0-1.3-0.5-1.3-1.2c0,0,0,0,0,0h3.1v-0.4 C158,39.6,157.2,38.8,156.2,38.8C156.2,38.8,156.2,38.8,156.2,38.8 M154.9,40.4c0.1-0.6,0.7-1.1,1.3-1.1c0.6,0,1.2,0.5,1.2,1.1 H154.9z M116.8,15.7c-1,0-1.8,0.8-1.8,1.8c0,1,0.8,1.8,1.8,1.8c1,0,1.8-0.8,1.8-1.8C118.7,16.5,117.9,15.7,116.8,15.7 C116.9,15.7,116.8,15.7,116.8,15.7 M160.4,40.5l-0.4-0.1c-0.4-0.1-0.6-0.3-0.6-0.6c0-0.3,0.3-0.5,0.6-0.5c0,0,0,0,0,0 c0.4,0,0.7,0.2,0.8,0.6l0.5-0.1c-0.1-0.6-0.6-1-1.2-1c-0.6-0.1-1.1,0.3-1.2,0.9c0,0,0,0.1,0,0.1c0,0.5,0.4,0.8,0.8,1l0.5,0.2 c0.5,0.1,0.6,0.3,0.6,0.6s-0.3,0.5-0.7,0.5c-0.4,0-0.8-0.3-0.9-0.7l-0.5,0.2c0.1,0.6,0.7,1.1,1.4,1c0.6,0.1,1.2-0.4,1.3-1 c0,0,0,0,0-0.1C161.3,41,160.9,40.7,160.4,40.5 M166.7,25.3l-1.5-0.6c-0.7-0.2-1-0.5-1-0.9c0-0.5,0.4-0.8,1.1-0.8 c0.7,0,1.4,0.5,1.5,1.2l2.5-0.4c-0.3-1.9-2-3.3-4-3.2c-2.3,0-3.9,1.4-3.9,3.4c0,1.3,0.8,2.4,2.5,3.1l1.8,0.7 c0.7,0.3,0.9,0.6,0.9,1c0,0.5-0.5,0.9-1.2,0.9c-0.8,0-1.6-0.5-1.8-1.3l-2.5,0.7c0.2,1.5,1.7,3.1,4.2,3.1c2.3,0,4.1-1.4,4.1-3.5 C169.5,26.8,168.2,25.9,166.7,25.3 M79.9,39.6c-0.3-0.5-0.8-0.8-1.4-0.7c-1,0-1.9,0.8-1.9,1.9c0,1,0.8,1.9,1.9,1.9 c0.6,0,1.1-0.3,1.4-0.7l0,0.7h0.5v-3.6h-0.5L79.9,39.6z M78.5,42.1c-0.8,0-1.4-0.6-1.4-1.3c0-0.8,0.6-1.4,1.3-1.4 c0.8,0,1.4,0.6,1.4,1.3c0,0,0,0,0,0C79.9,41.4,79.3,42,78.5,42.1C78.6,42.1,78.6,42.1,78.5,42.1 M146,41.7v-2.3h0.8v-0.5H146v-1 h-0.5v1h-0.7v0.5h0.7v2.4c0,0.4,0.2,0.7,0.6,0.7c0,0,0.1,0,0.1,0h0.6V42h-0.6C146.1,42,146,41.9,146,41.7 M145.4,15.7 c-1,0-1.8,0.8-1.8,1.8c0,1,0.8,1.8,1.8,1.8c1,0,1.8-0.8,1.8-1.8C147.3,16.5,146.5,15.7,145.4,15.7 C145.4,15.7,145.4,15.7,145.4,15.7 M153,41.7v-2.3h0.8v-0.5H153v-1h-0.5v1h-0.7v0.5h0.7v2.4c0,0.4,0.2,0.7,0.6,0.7 c0,0,0.1,0,0.1,0h0.6V42h-0.5C153.1,42,153,41.9,153,41.7 M144,31.7h2.9V20.8H144V31.7z M92.3,40.7c0,0.8-0.5,1.3-1.1,1.3 c-0.6,0-1-0.4-1-1.2v-2h-0.5v2.2c0,0.9,0.5,1.5,1.4,1.5c0.5,0,1-0.2,1.2-0.7l0,0.6h0.5v-3.6h-0.5L92.3,40.7z M102.6,38.8 c-1,0-1.9,0.8-1.9,1.8c0,0,0,0,0,0.1c0,1,0.7,1.8,1.7,1.9c0.1,0,0.1,0,0.2,0c0.6,0,1.2-0.2,1.6-0.6l-0.3-0.4 c-0.3,0.3-0.8,0.5-1.2,0.5c-0.7,0-1.3-0.5-1.3-1.2c0,0,0,0,0,0h3.1v-0.4C104.4,39.6,103.6,38.8,102.6,38.8 C102.6,38.8,102.6,38.8,102.6,38.8 M101.3,40.4c0.1-0.6,0.7-1.1,1.3-1.1c0.6,0,1.2,0.5,1.2,1.1H101.3z M101,31.7h2.8V20.8h-2.9 v5.4c0,1.7-0.6,3-2.2,3c-1.2,0-2.2-0.9-2.2-2.1c0-0.1,0-0.2,0-0.3v-6.1h-2.9v6.5c0,2.7,1.1,4.6,4,4.6c1.3,0,2.5-0.6,3.3-1.7 L101,31.7z M98.4,38.8c-0.6,0-1.1,0.3-1.3,0.8c-0.2-0.5-0.7-0.9-1.3-0.8c-0.5,0-1,0.2-1.2,0.7l0-0.6h-0.5v3.6h0.5v-1.8 c0-0.8,0.5-1.3,1.1-1.3c0.6,0,0.9,0.4,0.9,1.2v2h0.5v-1.8c0-0.8,0.5-1.3,1.1-1.3c0.6,0,0.9,0.4,0.9,1.2v2h0.5v-2.2 c0.1-0.7-0.4-1.4-1.1-1.5C98.6,38.8,98.5,38.8,98.4,38.8 M82.4,41.7v-2.3h0.8v-0.5h-0.8v-1h-0.5v1h-0.7v0.5h0.7v2.4 c0,0.4,0.2,0.7,0.6,0.7c0,0,0.1,0,0.1,0h0.6V42h-0.5C82.5,42,82.4,41.9,82.4,41.7 M91.5,26.2c-0.1-3.2-2.8-5.8-6-5.7 c-3.1,0.1-5.6,2.6-5.7,5.7c0,3.2,2.7,5.8,5.9,5.8C88.9,31.9,91.4,29.4,91.5,26.2 M85.7,29.3c-1.7,0-3.1-1.3-3.1-3c0,0,0,0,0-0.1 c0-1.7,1.3-3,3-3c0,0,0.1,0,0.1,0c1.6,0,3,1.3,3,2.9c0,0,0,0.1,0,0.1C88.7,27.9,87.4,29.3,85.7,29.3 C85.7,29.3,85.7,29.3,85.7,29.3 M88.1,40.8c0,0.8-0.3,1.2-0.9,1.2c-0.4,0-0.7-0.2-0.9-0.5L85.8,42c0.3,0.4,0.8,0.6,1.3,0.6 c1,0,1.5-0.6,1.5-1.7v-3.6h-0.6L88.1,40.8z M107.7,39.5v-0.1l0-0.5h-0.5v3.6h0.5v-1.8c0-0.9,0.4-1.3,1.2-1.3h0v-0.5 C108.4,38.8,108,39.1,107.7,39.5 M109.7,22.7l-0.1-1.9h-2.7v10.8h2.9v-4.8c0-2.5,1.4-3.5,3.6-3.5h0.1v-2.8 C111.9,20.5,110.4,21.3,109.7,22.7 M112.6,39.6c-0.3-0.5-0.8-0.8-1.4-0.7c-1,0-1.9,0.8-1.9,1.9c0,1,0.8,1.9,1.9,1.9 c0.6,0,1.1-0.3,1.4-0.7l0,0.7h0.5v-3.6h-0.5L112.6,39.6z M111.2,42.1c-0.8,0-1.4-0.6-1.4-1.3c0-0.8,0.6-1.4,1.3-1.4 c0.8,0,1.4,0.6,1.4,1.3c0,0,0,0,0,0C112.6,41.4,112,42,111.2,42.1C111.3,42.1,111.3,42.1,111.2,42.1 M116.1,38.8 c-0.5,0-1,0.2-1.2,0.7v-2.2h-0.5v5.2h0.5v-1.9c0-0.8,0.5-1.3,1.1-1.3c0.6,0,0.9,0.4,0.9,1.2v2h0.5v-2.2 C117.5,39.4,117,38.8,116.1,38.8 M105.6,37.4c-0.2,0-0.4,0.2-0.4,0.4c0,0.2,0.2,0.4,0.4,0.4c0.2,0,0.4-0.2,0.4-0.4v0 C106,37.5,105.9,37.4,105.6,37.4C105.7,37.4,105.7,37.4,105.6,37.4 M105.4,42.5h0.5v-3.6h-0.5V42.5z M115.4,31.7h2.9V20.8h-2.9 V31.7z"></path> </g> </g> </svg> 